# xmcd
#
# Track frame offsets:
#	150
#	19033
#	43793
#	56258
#	82071
#	108096
#	134121
#	156701
#	175546
#	193633
#
# Disc length: 2950 seconds
#
# Revision: 0
# Processed by: cddbd v1.5.2PL0 Copyright (c) Steve Scherf et al.
# Submitted via: EasyCDDAExtractor 16.0.8.1
#
DISCID=840b840a
DTITLE=Abdi Behravanfar - Shalamroud
DYEAR=2008
DGENRE=Iranian Blues
TTITLE0=Faryade Feshordeh
TTITLE1=Agha Ghazanfar
TTITLE2=Toop e Toop
TTITLE3=Shalamroud
TTITLE4=Marde Sard o Garm Keshide
TTITLE5=Kargare Bad Bakht
TTITLE6=Be Saram Zad
TTITLE7=Kenare Joo
TTITLE8=Gorg e Balan Rideh
TTITLE9=Baghe Vaba Gerefteh
EXTD=
EXTT0=
EXTT1=
EXTT2=
EXTT3=
EXTT4=
EXTT5=
EXTT6=
EXTT7=
EXTT8=
EXTT9=
PLAYORDER=
